<?xml version="1.0" encoding="utf-8"?>
<!-- Generator: Adobe Illustrator 15.0.0, SVG Export Plug-In . SVG Version: 6.00 Build 0)  -->
<!DOCTYPE svg PUBLIC "-//W3C//DTD SVG 1.1//EN" "http://www.w3.org/Graphics/SVG/1.1/DTD/svg11.dtd">
<svg version="1.1" id="Layer_1" xmlns="http://www.w3.org/2000/svg" xmlns:xlink="http://www.w3.org/1999/xlink" x="0px" y="0px"
	 width="600px" height="337px" viewBox="0 0 600 337" enable-background="new 0 0 600 337" xml:space="preserve">
<g id="square" display="none">
	<g display="inline">
		<polyline fill="none" stroke="#57AFC4" stroke-width="7" stroke-miterlimit="10" points="589.5,323 589.5,327.5 585,327.5 		"/>
		
			<line fill="none" stroke="#57AFC4" stroke-width="7" stroke-miterlimit="10" stroke-dasharray="10,10" x1="575" y1="327.5" x2="18" y2="327.5"/>
		<polyline fill="none" stroke="#57AFC4" stroke-width="7" stroke-miterlimit="10" points="13,327.5 7.5,327.5 7.5,323 		"/>
		
			<line fill="none" stroke="#57AFC4" stroke-width="7" stroke-miterlimit="10" stroke-dasharray="10,10" x1="7.5" y1="313" x2="7.5" y2="18"/>
		<polyline fill="none" stroke="#57AFC4" stroke-width="7" stroke-miterlimit="10" points="7.5,13 7.5,8.5 13,8.5 		"/>
		
			<line fill="none" stroke="#57AFC4" stroke-width="7" stroke-miterlimit="10" stroke-dasharray="10,10" x1="23" y1="8.5" x2="580" y2="8.5"/>
		<polyline fill="none" stroke="#57AFC4" stroke-width="7" stroke-miterlimit="10" points="585,8.5 589.5,8.5 589.5,13 		"/>
		
			<line fill="none" stroke="#57AFC4" stroke-width="7" stroke-miterlimit="10" stroke-dasharray="10,10" x1="589.5" y1="23" x2="589.5" y2="318"/>
	</g>
</g>
<g id="doodle">
	<path id="ear" display="none" fill="#F9803D" stroke="#020000" stroke-width="4" stroke-miterlimit="10" d="M156.036,38.461
		c0,0,31.566-37.137,38.994-33.423c6.601,3.301-21.467,45.561-19.497,42.708"/>
	<path id="drawing" display="none" fill="none" stroke="#020000" stroke-width="4" stroke-miterlimit="10" d="M0,325.25
		C100.5,320,176.594,280.958,161.5,245c-34-81-264-166-21-217c40.3-8.458,75.095-21.901,60.095,18.597
		C191.204,71.954,233.5,29,203.5,127c-19.32,63.111,24,210,24,210"/>
	<path id="morphed" display="none" fill="#F9803D" stroke="#020000" stroke-width="4" stroke-miterlimit="10" d="M0.25,336.75
		c101,0.25,176.344-55.792,161.25-91.75c-16.274-105.83-276.23-151.171-21-217c40.3-8.458,134.293-30.178,61.315,11.182
		C157.72,55.585,215.646,65.429,203.5,127c-19.32,63.111,24,210,24,210"/>
	<path id="face" display="none" fill="#FCE8DB" stroke="#020000" stroke-width="4" stroke-miterlimit="10" d="M70.985,337
		C69.5,298,42.384,258.866,23.5,219c-54-114,133-166,149-20c3.597,32.821,26.075,42.505,1,42
		c-27.736-0.559,44.396,59.593-2.667,67.334C134.324,314.339,141.5,337,141.5,337"/>
	
		<circle id="eye" display="none" fill="#FFFFFF" stroke="#000000" stroke-width="4" stroke-miterlimit="10" cx="101.079" cy="75.671" r="12.671"/>
	
		<path id="mouth" display="none" fill="#FFFFFF" stroke="#000000" stroke-width="4" stroke-linecap="round" stroke-miterlimit="10" d="
		M73.023,144.489c0,0,45.343,3.33,50.559-27.224s18.88,37.518-33.4,42.606"/>
	<path id="nose" display="none" d="M47.859,64.203l-4.946,48.688C42.913,112.89,12.682,86.899,47.859,64.203z"/>
	<circle id="pupil" display="none" fill="#020000" cx="105.641" cy="73.109" r="7.68"/>
</g>
</svg>
