<?xml version="1.0" encoding="utf-8"?>
<!-- Generator: Adobe Illustrator 15.0.0, SVG Export Plug-In . SVG Version: 6.00 Build 0)  -->
<!DOCTYPE svg PUBLIC "-//W3C//DTD SVG 1.1//EN" "http://www.w3.org/Graphics/SVG/1.1/DTD/svg11.dtd">
<svg version="1.1" id="landing" xmlns="http://www.w3.org/2000/svg" xmlns:xlink="http://www.w3.org/1999/xlink" x="0px" y="0px"
	 width="690px" height="519px" viewBox="0 0 690 519" enable-background="new 0 0 690 519" xml:space="preserve">
<rect id="background" x="0.75" y="-0.75" fill="#A6CB95" width="690" height="519"/>
<g id="house">
	<g>
		<path fill="#FFFFFF" d="M101.431,239.036V163.1c0-5.859-4.747-10.598-10.599-10.598h-13.05l79.594-79.61l79.588,79.61h-13.053
			c-5.862,0-10.603,4.739-10.603,10.598v75.936H101.431L101.431,239.036z"/>
		<path fill="#F05F22" d="M157.376,87.874l56.515,56.533c-6.656,3.579-11.182,10.61-11.182,18.689v65.331h-33.655h-23.357h-33.662
			v-65.331c0-8.079-4.523-15.104-11.179-18.689L157.376,87.874 M157.376,57.881L52.197,163.095h38.641v86.541h54.865h23.356h54.862
			v-86.541h38.645L157.376,57.881L157.376,57.881z"/>
	</g>
	<g>
		<path fill="#007587" d="M157.376,57.881l105.179,105.213H223.91v86.541h-54.859v-50.469h-23.359v50.469H90.826v-86.541H52.184
			L157.376,57.881 M157.376,36.678L157.376,36.678c-5.627,0-11.021,2.238-14.994,6.214L37.206,148.104
			c-6.065,6.069-7.876,15.184-4.598,23.104c3.278,7.929,11.01,13.089,19.589,13.089h17.436v65.339
			c0,11.719,9.491,21.209,21.207,21.209h54.865c4.316,0,8.331-1.287,11.679-3.502c3.35,2.215,7.359,3.502,11.681,3.502h54.859
			c11.712,0,21.207-9.49,21.207-21.209v-65.339h17.438c8.578,0,16.311-5.161,19.589-13.089c3.281-7.922,1.474-17.047-4.592-23.104
			L172.377,42.893C168.386,38.916,162.999,36.678,157.376,36.678L157.376,36.678z"/>
	</g>
</g>
<rect x="236.964" y="44.336" fill="none" width="416.592" height="218.846"/>
<g enable-background="new    ">
	<path fill="#FFFFFF" d="M274.125,51.839h3.984v22.058h27.322V51.839h3.984v49.309h-3.984V77.24h-27.322v23.907h-3.984V51.839z"/>
	<path fill="#FFFFFF" d="M316.891,83.715V82.79c0-11.811,6.831-18.356,16.151-18.356c9.748,0,16.151,6.261,16.151,18.072v0.854
		c0,11.883-6.83,18.429-16.222,18.429C323.224,101.788,316.891,95.526,316.891,83.715z M345.209,83.786v-1.352
		c0-10.744-5.265-14.8-12.238-14.8c-7.257,0-12.096,5.123-12.096,14.8v1.352c0,10.602,5.265,14.8,12.167,14.8
		C340.3,98.586,345.209,93.534,345.209,83.786z"/>
	<path fill="#FFFFFF" d="M352.115,65.073h4.055l8.682,31.022h0.142l9.605-31.022h3.415l9.535,31.022h0.143l8.68-31.022h3.7
		l-10.602,36.074h-3.913l-9.321-30.098h-0.214l-9.392,30.098h-3.984L352.115,65.073z"/>
	<path fill="#FFFFFF" d="M421.279,93.605v-25.33h-5.265v-3.202h5.265v-8.538h3.843v8.538h9.89v3.202h-9.89v24.761
		c0,3.771,1.28,5.336,5.763,5.336c1.637,0,3.416-0.355,4.839-0.782v2.704c-1.21,0.569-3.06,1.28-5.763,1.28
		C424.481,101.574,421.279,99.155,421.279,93.605z"/>
	<path fill="#FFFFFF" d="M439.07,83.715V82.79c0-11.811,6.83-18.356,16.15-18.356c9.748,0,16.152,6.261,16.152,18.072v0.854
		c0,11.883-6.831,18.429-16.223,18.429C445.402,101.788,439.07,95.526,439.07,83.715z M467.389,83.786v-1.352
		c0-10.744-5.266-14.8-12.238-14.8c-7.258,0-12.096,5.123-12.096,14.8v1.352c0,10.602,5.265,14.8,12.166,14.8
		C462.479,98.586,467.389,93.534,467.389,83.786z"/>
</g>
<g enable-background="new    ">
	<path fill="#007587" d="M485.418,105.772c0-4.341,3.344-7.187,7.329-8.609v-0.214c-2.135-0.569-3.771-2.276-3.771-4.909
		c0-2.348,1.28-4.625,3.699-6.546c-2.775-1.85-4.482-4.839-4.482-8.965V75.96c0-7.258,5.55-11.526,13.163-11.526
		c1.708,0,3.272,0.213,4.767,0.568h12.025v3.06h-7.187c2.276,1.708,3.486,4.27,3.486,7.685v0.641
		c0,7.471-5.692,11.384-13.092,11.384c-2.491,0-4.768-0.427-6.688-1.209c-1.209,1.067-2.063,2.49-2.063,4.127
		c0,2.205,1.353,3.558,3.984,3.558h10.388c6.404,0,11.172,2.419,11.172,9.32c0,6.19-4.91,11.669-17.006,11.669
		C490.043,115.235,485.418,111.108,485.418,105.772z M514.164,104.064c0-4.554-2.704-6.119-7.756-6.119h-10.673
		c-3.558,1.21-6.261,3.558-6.261,7.329c0,3.913,3.059,6.759,11.598,6.759C510.678,112.033,514.164,108.477,514.164,104.064z
		 M510.605,76.529v-0.854c0-5.621-3.699-8.253-9.249-8.253c-5.692,0-9.321,2.988-9.321,8.182v0.854c0,5.479,3.771,8.253,9.321,8.253
		C506.977,84.711,510.605,81.937,510.605,76.529z"/>
	<path fill="#007587" d="M523.203,65.073h3.7v4.412h0.214c2.134-2.49,6.189-4.839,10.672-4.839c0.783,0,1.708,0.143,2.063,0.214
		v3.486c-0.712-0.143-1.708-0.214-2.348-0.214c-4.127,0-7.897,1.779-10.46,4.056v28.959h-3.842V65.073z"/>
	<path fill="#007587" d="M542.486,83.573v-0.854c0-12.522,7.187-18.285,15.725-18.285c9.819,0,14.23,6.048,14.23,16.934v2.135
		h-25.971c0,10.388,4.555,14.87,13.662,14.87c4.838,0,8.253-1.066,11.1-2.49V98.8c-2.206,1.423-6.119,2.988-11.74,2.988
		C548.25,101.788,542.486,95.171,542.486,83.573z M546.543,80.371h21.843c0-8.467-3.344-12.736-10.317-12.736
		C552.306,67.635,547.111,71.192,546.543,80.371z"/>
	<path fill="#007587" d="M576.571,83.573v-0.854c0-12.522,7.187-18.285,15.725-18.285c9.819,0,14.229,6.048,14.229,16.934v2.135
		h-25.97c0,10.388,4.554,14.87,13.661,14.87c4.838,0,8.254-1.066,11.1-2.49V98.8c-2.205,1.423-6.119,2.988-11.74,2.988
		C582.334,101.788,576.571,95.171,576.571,83.573z M580.627,80.371h21.844c0-8.467-3.344-12.736-10.317-12.736
		C586.391,67.635,581.196,71.192,580.627,80.371z"/>
	<path fill="#007587" d="M613.074,65.073h3.701v3.416h0.213c3.842-2.491,8.681-4.056,13.163-4.056c6.901,0,10.53,2.774,10.53,9.676
		v27.038h-3.842V74.893c0-5.123-2.277-7.115-8.183-7.115c-3.913,0-8.183,1.28-11.74,3.344v30.026h-3.843V65.073z"/>
</g>
<g enable-background="new    ">
	<path fill="#FFFFFF" d="M342.294,188.824v-2.775c1.067,0.214,2.348,0.427,3.7,0.427c3.842,0,5.691-1.992,7.257-5.834l2.206-5.764
		l-14.159-35.362h4.126l11.882,30.24h0.143l10.957-30.24h3.842l-15.439,41.624c-2.063,5.621-4.554,8.538-10.174,8.538
		C344.998,189.678,343.29,189.251,342.294,188.824z"/>
	<path fill="#FFFFFF" d="M374.172,158.157v-0.925c0-11.811,6.831-18.356,16.152-18.356c9.747,0,16.15,6.261,16.15,18.072v0.854
		c0,11.883-6.83,18.429-16.223,18.429C380.505,176.23,374.172,169.969,374.172,158.157z M402.49,158.229v-1.352
		c0-10.744-5.265-14.8-12.238-14.8c-7.257,0-12.096,5.123-12.096,14.8v1.352c0,10.602,5.266,14.8,12.168,14.8
		C397.581,173.028,402.49,167.977,402.49,158.229z"/>
	<path fill="#FFFFFF" d="M412.811,166.198v-26.683h3.843v26.042c0,5.336,2.349,7.257,8.111,7.257c3.913,0,7.897-1.28,11.526-3.415
		v-29.884h3.842v36.074h-3.344l-0.355-3.486h-0.213c-3.843,2.562-8.254,4.127-12.523,4.127
		C416.795,176.23,412.811,173.028,412.811,166.198z"/>
	<path fill="#FFFFFF" d="M449.102,139.516h3.699v4.412h0.214c2.134-2.49,6.19-4.839,10.673-4.839c0.783,0,1.707,0.143,2.062,0.214
		v3.486c-0.711-0.143-1.707-0.214-2.348-0.214c-4.127,0-7.897,1.779-10.459,4.056v28.959h-3.842V139.516z"/>
	<path fill="#FFFFFF" d="M484.893,123.009h3.842v19.852h0.214c3.771-2.49,8.538-3.984,13.021-3.984
		c6.902,0,10.531,2.774,10.531,9.676v27.038h-3.843v-26.255c0-5.123-2.276-7.115-8.183-7.115c-3.913,0-8.182,1.28-11.74,3.344
		v30.026h-3.842V123.009z"/>
	<path fill="#FFFFFF" d="M518.834,158.157v-0.925c0-11.811,6.831-18.356,16.152-18.356c9.747,0,16.15,6.261,16.15,18.072v0.854
		c0,11.883-6.83,18.429-16.223,18.429C525.167,176.23,518.834,169.969,518.834,158.157z M547.152,158.229v-1.352
		c0-10.744-5.265-14.8-12.238-14.8c-7.257,0-12.096,5.123-12.096,14.8v1.352c0,10.602,5.266,14.8,12.168,14.8
		C542.243,173.028,547.152,167.977,547.152,158.229z"/>
	<path fill="#FFFFFF" d="M557.687,139.516h3.7v3.416h0.213c3.843-2.42,7.969-4.056,12.025-4.056c4.127,0,7.043,1.28,8.68,4.197
		h0.214c4.554-2.846,8.823-4.197,12.808-4.197c6.119,0,9.961,2.774,9.961,9.676v27.038h-3.842v-26.255
		c0-5.123-2.42-7.115-7.471-7.115c-3.273,0-6.831,1.067-10.887,3.344c0.213,0.926,0.285,1.851,0.285,2.988v27.038h-3.843v-26.255
		c0-5.123-2.206-7.115-7.329-7.115c-3.486,0-7.115,1.28-10.672,3.344v30.026h-3.843V139.516z"/>
	<path fill="#FFFFFF" d="M611.625,158.016v-0.854c0-12.522,7.186-18.285,15.725-18.285c9.818,0,14.23,6.048,14.23,16.934v2.135
		h-25.971c0,10.388,4.554,14.87,13.661,14.87c4.839,0,8.253-1.066,11.1-2.49v2.918c-2.206,1.423-6.119,2.988-11.739,2.988
		C617.389,176.23,611.625,169.613,611.625,158.016z M615.681,154.813h21.843c0-8.467-3.344-12.736-10.316-12.736
		C621.443,142.077,616.25,145.635,615.681,154.813z"/>
</g>
</svg>
